<svg id="svg" xmlns="http://www.w3.org/2000/svg" xmlns:xlink="http://www.w3.org/1999/xlink" width="400" height="346.2621885157097" viewBox="0, 0, 400,346.2621885157097" version="1.1"><g id="svgg"><path id="path0" d="M-0.000 86.081 C -0.000 137.325,0.127 172.084,0.313 171.968 C 0.590 171.797,1.674 170.012,3.480 166.753 C 3.797 166.182,5.191 163.766,6.578 161.385 C 7.965 159.004,10.226 155.108,11.602 152.727 C 12.978 150.346,15.781 145.515,17.831 141.991 C 19.881 138.468,21.906 134.961,22.332 134.199 C 22.758 133.437,23.868 131.515,24.800 129.927 C 26.571 126.907,27.297 125.654,28.957 122.755 C 29.507 121.794,30.658 119.791,31.515 118.304 C 32.372 116.817,33.398 115.032,33.794 114.337 C 34.190 113.642,35.420 111.515,36.528 109.610 C 39.946 103.732,42.311 99.636,43.225 98.009 C 43.707 97.152,45.017 94.892,46.137 92.987 C 47.256 91.082,48.348 89.212,48.564 88.831 C 48.965 88.123,51.484 83.769,56.243 75.557 C 57.715 73.018,59.610 69.772,60.455 68.342 C 61.300 66.913,61.991 65.693,61.991 65.631 C 61.991 65.570,62.950 63.907,64.122 61.937 C 65.293 59.967,66.594 57.732,67.013 56.970 C 67.431 56.208,68.912 53.636,70.303 51.255 C 71.694 48.874,73.176 46.303,73.596 45.541 C 74.268 44.324,79.313 35.610,85.128 25.628 C 86.182 23.818,87.369 21.767,87.765 21.069 C 88.161 20.371,89.247 18.501,90.179 16.913 C 91.110 15.325,92.220 13.403,92.644 12.641 C 96.523 5.679,99.365 0.987,100.039 0.433 C 100.461 0.086,90.559 -0.000,50.283 -0.000 L 0.000 0.000 -0.000 86.081 M300.260 0.406 C 300.260 0.629,300.474 1.057,300.736 1.358 C 301.158 1.843,305.322 8.934,307.362 12.641 C 307.781 13.403,308.868 15.273,309.778 16.797 C 310.688 18.320,311.776 20.190,312.196 20.952 C 312.615 21.714,313.781 23.740,314.786 25.455 C 317.212 29.593,317.493 30.076,319.828 34.113 C 320.930 36.017,322.693 39.056,323.745 40.866 C 324.798 42.675,325.983 44.724,326.379 45.419 C 326.776 46.114,327.801 47.899,328.658 49.386 C 330.978 53.411,332.128 55.428,332.984 56.970 C 333.406 57.732,334.717 59.991,335.897 61.991 C 337.077 63.991,338.218 65.939,338.434 66.320 C 339.416 68.054,341.215 71.166,343.541 75.152 C 344.931 77.532,347.194 81.429,348.570 83.810 C 349.947 86.190,352.206 90.087,353.591 92.468 C 354.976 94.848,356.458 97.420,356.886 98.182 C 357.313 98.944,358.205 100.502,358.867 101.645 C 359.529 102.788,361.241 105.749,362.672 108.225 C 364.102 110.701,366.405 114.675,367.790 117.056 C 369.174 119.437,370.638 121.966,371.041 122.675 C 371.758 123.936,375.768 130.885,377.489 133.851 C 377.965 134.671,379.287 136.955,380.426 138.927 C 381.565 140.898,382.733 142.919,383.023 143.418 C 383.313 143.918,385.163 147.112,387.134 150.518 C 389.105 153.924,391.896 158.736,393.335 161.212 C 397.336 168.094,397.495 168.371,398.425 170.105 C 398.903 170.997,399.453 171.824,399.647 171.944 C 399.886 172.092,400.000 144.451,400.000 86.081 L 400.000 0.000 350.130 0.000 C 312.253 0.000,300.260 0.098,300.260 0.406 M0.000 260.239 L 0.000 346.320 49.870 346.320 C 77.299 346.320,99.740 346.203,99.739 346.061 C 99.738 345.918,99.400 345.255,98.988 344.589 C 98.357 343.568,94.547 337.025,93.240 334.719 C 93.024 334.338,91.882 332.390,90.702 330.390 C 89.522 328.390,88.217 326.130,87.800 325.368 C 87.384 324.606,86.181 322.502,85.128 320.693 C 79.278 310.646,74.267 301.996,73.593 300.779 C 73.170 300.017,72.063 298.095,71.131 296.507 C 68.857 292.631,68.129 291.367,67.110 289.524 C 66.636 288.667,65.464 286.641,64.506 285.022 C 63.548 283.403,62.454 281.532,62.074 280.866 C 61.694 280.199,60.842 278.719,60.180 277.576 C 59.518 276.433,57.806 273.472,56.375 270.996 C 54.944 268.519,52.635 264.545,51.244 262.165 C 49.853 259.784,48.374 257.212,47.958 256.450 C 47.541 255.688,46.417 253.740,45.459 252.121 C 44.501 250.502,43.406 248.632,43.026 247.965 C 42.647 247.299,41.794 245.818,41.132 244.675 C 40.470 243.532,38.758 240.571,37.328 238.095 C 35.898 235.619,33.598 231.645,32.219 229.264 C 30.839 226.883,29.362 224.312,28.935 223.550 C 28.509 222.788,27.337 220.762,26.330 219.048 C 23.436 214.119,23.137 213.599,22.246 211.948 C 21.784 211.091,21.283 210.234,21.134 210.043 C 20.984 209.853,19.339 207.048,17.478 203.810 C 12.719 195.531,9.570 190.083,7.590 186.702 C 6.654 185.103,5.887 183.735,5.887 183.664 C 5.887 183.553,4.604 181.379,2.855 178.528 C 2.622 178.147,2.042 177.106,1.568 176.215 C 1.094 175.324,0.547 174.496,0.353 174.376 C 0.114 174.228,0.000 201.869,0.000 260.239 M399.377 174.615 C 399.148 174.843,398.961 175.142,398.961 175.279 C 398.961 175.415,398.237 176.748,397.351 178.240 C 396.466 179.732,395.294 181.732,394.747 182.684 C 392.712 186.227,390.937 189.295,390.338 190.303 C 389.999 190.874,387.878 194.537,385.626 198.442 C 383.373 202.346,380.445 207.411,379.119 209.697 C 376.131 214.847,375.101 216.628,373.240 219.862 C 372.434 221.263,371.446 222.977,371.045 223.672 C 370.643 224.367,369.145 226.961,367.715 229.437 C 366.285 231.913,363.435 236.823,361.381 240.346 C 359.328 243.870,357.408 247.221,357.114 247.792 C 356.821 248.364,356.065 249.642,355.433 250.633 C 354.802 251.624,354.286 252.507,354.286 252.595 C 354.286 252.684,353.560 253.977,352.672 255.469 C 351.785 256.961,349.936 260.130,348.564 262.511 C 346.086 266.811,342.151 273.596,339.828 277.576 C 339.161 278.719,338.271 280.277,337.851 281.039 C 337.019 282.546,336.596 283.277,333.843 287.965 C 332.836 289.680,331.664 291.706,331.238 292.468 C 330.487 293.809,327.741 298.566,323.692 305.541 C 319.963 311.965,317.820 315.677,316.955 317.216 C 316.477 318.066,315.253 320.151,314.234 321.849 C 313.215 323.547,312.381 325.005,312.381 325.088 C 312.381 325.172,311.619 326.515,310.687 328.074 C 309.756 329.633,308.138 332.390,307.092 334.199 C 306.046 336.009,304.081 339.388,302.725 341.709 C 301.369 344.030,300.260 346.017,300.260 346.125 C 300.260 346.232,322.701 346.320,350.130 346.320 L 400.000 346.320 400.000 260.260 C 400.000 212.926,399.953 174.199,399.896 174.199 C 399.839 174.199,399.605 174.386,399.377 174.615 " stroke="none" fill="none" fill-rule="evenodd"></path><path id="path1" d="M100.039 0.433 C 99.365 0.987,96.523 5.679,92.644 12.641 C 92.220 13.403,91.110 15.325,90.179 16.913 C 89.247 18.501,88.161 20.371,87.765 21.069 C 87.369 21.767,86.182 23.818,85.128 25.628 C 79.313 35.610,74.268 44.324,73.596 45.541 C 73.176 46.303,71.694 48.874,70.303 51.255 C 68.912 53.636,67.431 56.208,67.013 56.970 C 66.594 57.732,65.293 59.967,64.122 61.937 C 62.950 63.907,61.991 65.570,61.991 65.631 C 61.991 65.693,61.300 66.913,60.455 68.342 C 59.610 69.772,57.715 73.018,56.243 75.557 C 51.484 83.769,48.965 88.123,48.564 88.831 C 48.348 89.212,47.256 91.082,46.137 92.987 C 45.017 94.892,43.707 97.152,43.225 98.009 C 42.310 99.637,39.813 103.963,36.478 109.697 C 35.398 111.554,34.190 113.642,33.794 114.337 C 33.398 115.032,32.372 116.817,31.515 118.304 C 30.658 119.791,29.507 121.794,28.957 122.755 C 27.297 125.654,26.571 126.907,24.800 129.927 C 23.868 131.515,22.758 133.437,22.332 134.199 C 21.906 134.961,19.881 138.468,17.831 141.991 C 15.781 145.515,12.978 150.346,11.602 152.727 C 10.226 155.108,7.965 159.004,6.578 161.385 C 5.191 163.766,3.797 166.182,3.480 166.753 C 1.674 170.012,0.590 171.797,0.313 171.968 C -0.115 172.233,-0.084 174.106,0.353 174.376 C 0.547 174.496,1.094 175.324,1.568 176.215 C 2.042 177.106,2.622 178.147,2.855 178.528 C 4.604 181.379,5.887 183.553,5.887 183.664 C 5.887 183.735,6.654 185.103,7.590 186.702 C 9.570 190.083,12.719 195.531,17.478 203.810 C 19.339 207.048,20.984 209.853,21.134 210.043 C 21.283 210.234,21.784 211.091,22.246 211.948 C 23.137 213.599,23.436 214.119,26.330 219.048 C 27.337 220.762,28.509 222.788,28.935 223.550 C 29.362 224.312,30.839 226.883,32.219 229.264 C 33.598 231.645,35.898 235.619,37.328 238.095 C 38.758 240.571,40.470 243.532,41.132 244.675 C 41.794 245.818,42.647 247.299,43.026 247.965 C 43.406 248.632,44.501 250.502,45.459 252.121 C 46.417 253.740,47.541 255.688,47.958 256.450 C 48.374 257.212,49.853 259.784,51.244 262.165 C 52.635 264.545,54.944 268.519,56.375 270.996 C 57.806 273.472,59.518 276.433,60.180 277.576 C 60.842 278.719,61.694 280.199,62.074 280.866 C 62.454 281.532,63.548 283.403,64.506 285.022 C 65.464 286.641,66.636 288.667,67.110 289.524 C 68.129 291.367,68.857 292.631,71.131 296.507 C 72.063 298.095,73.170 300.017,73.593 300.779 C 74.267 301.996,79.278 310.646,85.128 320.693 C 86.181 322.502,87.384 324.606,87.800 325.368 C 88.217 326.130,89.522 328.390,90.702 330.390 C 91.882 332.390,93.024 334.338,93.240 334.719 C 93.455 335.100,94.719 337.281,96.047 339.567 C 97.376 341.853,98.789 344.306,99.188 345.019 L 99.913 346.315 200.000 346.315 L 300.087 346.316 300.632 345.366 C 301.157 344.450,303.946 339.642,309.019 330.909 C 310.347 328.623,311.779 326.130,312.203 325.368 C 312.626 324.606,313.756 322.658,314.714 321.039 C 315.672 319.420,316.764 317.550,317.140 316.883 C 317.857 315.614,320.374 311.257,323.692 305.541 C 327.741 298.566,330.487 293.809,331.238 292.468 C 331.664 291.706,332.836 289.680,333.843 287.965 C 336.596 283.277,337.019 282.546,337.851 281.039 C 338.271 280.277,339.161 278.719,339.828 277.576 C 342.151 273.596,346.086 266.811,348.564 262.511 C 349.936 260.130,351.785 256.961,352.672 255.469 C 353.560 253.977,354.286 252.684,354.286 252.595 C 354.286 252.507,354.802 251.624,355.433 250.633 C 356.065 249.642,356.821 248.364,357.114 247.792 C 357.408 247.221,359.328 243.870,361.381 240.346 C 363.435 236.823,366.285 231.913,367.715 229.437 C 369.145 226.961,370.643 224.367,371.045 223.672 C 371.446 222.977,372.434 221.263,373.240 219.862 C 375.101 216.628,376.131 214.847,379.119 209.697 C 380.445 207.411,383.373 202.346,385.626 198.442 C 387.878 194.537,389.999 190.874,390.338 190.303 C 390.937 189.295,392.712 186.227,394.747 182.684 C 395.294 181.732,396.466 179.732,397.351 178.240 C 398.237 176.748,398.961 175.403,398.961 175.252 C 398.961 175.100,399.195 174.783,399.481 174.545 C 400.069 174.057,400.183 172.275,399.647 171.944 C 399.453 171.824,398.903 170.997,398.425 170.105 C 397.495 168.371,397.336 168.094,393.335 161.212 C 391.896 158.736,389.105 153.924,387.134 150.518 C 385.163 147.112,383.313 143.918,383.023 143.418 C 382.733 142.919,381.565 140.898,380.426 138.927 C 379.287 136.955,377.965 134.671,377.489 133.851 C 375.768 130.885,371.758 123.936,371.041 122.675 C 370.638 121.966,369.174 119.437,367.790 117.056 C 366.405 114.675,364.102 110.701,362.672 108.225 C 361.241 105.749,359.529 102.788,358.867 101.645 C 358.205 100.502,357.313 98.944,356.886 98.182 C 356.458 97.420,354.976 94.848,353.591 92.468 C 352.206 90.087,349.947 86.190,348.570 83.810 C 347.194 81.429,344.931 77.532,343.541 75.152 C 341.215 71.166,339.416 68.054,338.434 66.320 C 338.218 65.939,337.077 63.991,335.897 61.991 C 334.717 59.991,333.406 57.732,332.984 56.970 C 332.128 55.428,330.978 53.411,328.658 49.386 C 327.801 47.899,326.776 46.114,326.379 45.419 C 325.983 44.724,324.753 42.597,323.645 40.693 C 322.538 38.788,320.775 35.749,319.728 33.939 C 317.495 30.080,317.195 29.565,314.786 25.455 C 313.781 23.740,312.615 21.714,312.196 20.952 C 311.776 20.190,310.688 18.320,309.778 16.797 C 308.868 15.273,307.780 13.403,307.360 12.641 C 306.940 11.879,305.288 9.024,303.688 6.296 C 302.088 3.569,300.625 1.037,300.437 0.669 C 300.005 -0.177,101.065 -0.411,100.039 0.433 " stroke="none" fill="current" fill-opacity="opacity" fill-rule="evenodd"></path></g></svg>
