<svg id="svg" version="1.1" xmlns="http://www.w3.org/2000/svg" xmlns:xlink="http://www.w3.org/1999/xlink" width="400" height="346.88346883468836" viewBox="0, 0, 400,346.88346883468836"><g id="svgg"><path id="path0" d="M58.648 93.062 C 58.657 93.109,67.829 111.449,79.029 133.817 L 99.393 174.486 139.449 174.498 C 161.480 174.504,179.638 174.642,179.799 174.803 C 179.960 174.965,171.185 192.917,160.298 214.698 C 149.411 236.478,140.503 254.375,140.503 254.468 C 140.503 254.561,159.042 254.677,181.700 254.725 L 222.897 254.814 227.060 263.140 C 229.350 267.719,231.328 271.545,231.456 271.643 C 231.584 271.740,231.796 272.247,231.927 272.770 C 232.058 273.293,232.305 273.721,232.475 273.721 C 232.645 273.721,232.784 273.891,232.784 274.099 C 232.784 274.433,234.575 278.088,239.333 287.468 C 240.120 289.018,240.763 290.462,240.763 290.677 C 240.763 290.891,240.902 291.067,241.073 291.067 C 241.243 291.067,241.489 291.495,241.620 292.017 C 241.752 292.540,241.973 293.048,242.113 293.145 C 242.253 293.242,245.996 300.581,250.431 309.454 C 254.866 318.326,259.256 327.059,260.187 328.860 C 261.117 330.660,261.953 332.417,262.043 332.763 C 262.398 334.120,263.081 333.007,268.524 322.203 C 271.624 316.049,280.177 299.072,287.531 284.475 C 294.885 269.879,310.243 239.280,321.660 216.479 C 333.077 193.677,342.650 174.849,342.933 174.638 C 343.395 174.294,340.890 168.357,339.948 167.565 C 339.833 167.468,339.597 166.999,339.424 166.522 C 339.250 166.045,337.948 163.391,336.532 160.624 C 335.115 157.858,333.401 154.423,332.724 152.992 C 332.046 151.561,331.396 150.312,331.279 150.217 C 331.162 150.121,330.924 149.653,330.751 149.176 C 330.577 148.699,329.275 146.045,327.859 143.278 C 326.442 140.512,324.726 137.077,324.046 135.646 C 323.366 134.215,322.693 132.992,322.550 132.929 C 322.407 132.865,322.290 132.658,322.290 132.468 C 322.290 132.279,321.176 129.911,319.814 127.207 C 315.103 117.850,314.310 116.217,314.310 115.871 C 314.310 115.681,314.154 115.525,313.964 115.525 C 313.773 115.525,313.617 115.356,313.617 115.149 C 313.617 114.637,305.531 98.382,305.204 98.236 C 305.061 98.173,304.944 97.955,304.944 97.751 C 304.944 97.548,304.440 96.390,303.824 95.178 L 302.705 92.975 261.922 92.975 L 221.138 92.975 201.029 133.216 C 189.969 155.349,180.763 173.458,180.572 173.458 C 180.382 173.459,179.289 171.547,178.144 169.210 C 176.999 166.873,175.945 164.909,175.802 164.845 C 175.659 164.782,175.540 164.548,175.538 164.325 C 175.535 164.102,175.094 163.062,174.557 162.012 C 172.502 157.993,171.405 155.804,169.431 151.778 C 168.308 149.488,167.272 147.563,167.129 147.499 C 166.986 147.436,166.867 147.202,166.865 146.979 C 166.862 146.756,166.421 145.716,165.884 144.666 C 163.829 140.647,162.732 138.458,160.758 134.432 C 159.635 132.142,158.599 130.217,158.456 130.153 C 158.313 130.090,158.194 129.855,158.192 129.633 C 158.189 129.410,157.748 128.369,157.211 127.320 C 155.156 123.301,154.059 121.112,152.085 117.086 C 150.962 114.796,149.926 112.871,149.783 112.807 C 149.640 112.744,149.521 112.509,149.519 112.287 C 149.516 112.064,149.075 111.023,148.538 109.974 C 146.483 105.955,145.386 103.766,143.412 99.740 C 142.289 97.450,141.258 95.526,141.121 95.465 C 140.984 95.403,140.772 94.818,140.649 94.164 L 140.426 92.975 99.528 92.975 C 77.034 92.975,58.638 93.014,58.648 93.062 M261.578 174.976 C 261.578 175.047,257.619 182.970,252.781 192.583 C 247.942 202.196,239.004 220.005,232.919 232.160 C 226.835 244.314,221.778 254.257,221.683 254.256 C 221.587 254.254,216.618 244.466,210.640 232.504 C 204.662 220.542,195.806 202.871,190.959 193.235 C 186.112 183.599,182.071 175.520,181.978 175.282 C 181.843 174.936,189.926 174.848,221.693 174.848 C 243.630 174.848,261.578 174.906,261.578 174.976 " stroke="none" fill="#239f8a" fill-rule="evenodd"></path><path id="path1" d="M79.613 52.297 C 68.774 74.002,59.673 92.034,59.388 92.368 C 58.894 92.945,60.845 92.975,99.647 92.975 L 140.426 92.975 140.649 94.164 C 140.772 94.818,140.984 95.403,141.121 95.465 C 141.258 95.526,142.289 97.450,143.412 99.740 C 145.386 103.766,146.483 105.955,148.538 109.974 C 149.075 111.023,149.516 112.064,149.519 112.287 C 149.521 112.509,149.640 112.744,149.783 112.807 C 149.926 112.871,150.962 114.796,152.085 117.086 C 154.059 121.112,155.156 123.301,157.211 127.320 C 157.748 128.369,158.189 129.410,158.192 129.633 C 158.194 129.855,158.313 130.090,158.456 130.153 C 158.599 130.217,159.635 132.142,160.758 134.432 C 162.732 138.458,163.829 140.647,165.884 144.666 C 166.421 145.716,166.862 146.756,166.865 146.979 C 166.867 147.202,166.986 147.436,167.129 147.499 C 167.272 147.563,168.308 149.488,169.431 151.778 C 171.405 155.804,172.502 157.993,174.557 162.012 C 175.094 163.062,175.535 164.102,175.538 164.325 C 175.540 164.548,175.659 164.782,175.802 164.845 C 175.945 164.909,176.999 166.873,178.144 169.210 C 179.289 171.547,180.382 173.459,180.572 173.458 C 180.763 173.458,190.000 155.287,201.098 133.080 C 221.266 92.725,221.276 92.703,220.352 92.499 C 219.482 92.307,216.132 86.391,216.132 85.047 C 216.132 84.828,215.993 84.649,215.823 84.649 C 215.652 84.649,215.406 84.221,215.275 83.698 C 215.143 83.175,214.929 82.668,214.798 82.571 C 214.472 82.329,212.316 77.811,212.316 77.371 C 212.316 77.176,212.172 77.016,211.996 77.016 C 211.821 77.016,211.574 76.548,211.448 75.976 C 211.323 75.403,211.093 74.935,210.938 74.935 C 210.783 74.935,210.549 74.507,210.418 73.984 C 210.287 73.462,210.074 72.954,209.945 72.857 C 209.587 72.587,207.459 68.185,207.459 67.716 C 207.459 67.488,207.320 67.303,207.149 67.303 C 206.979 67.303,206.733 66.875,206.602 66.352 C 206.470 65.829,206.256 65.322,206.125 65.225 C 205.799 64.983,203.643 60.465,203.643 60.025 C 203.643 59.830,203.499 59.670,203.323 59.670 C 203.148 59.670,202.901 59.202,202.775 58.630 C 202.650 58.057,202.420 57.589,202.265 57.589 C 202.110 57.589,201.876 57.161,201.745 56.638 C 201.613 56.116,201.401 55.608,201.273 55.511 C 200.924 55.245,198.786 50.814,198.786 50.355 C 198.786 50.136,198.647 49.957,198.476 49.957 C 198.306 49.957,198.060 49.529,197.929 49.006 C 197.797 48.483,197.583 47.976,197.452 47.879 C 197.126 47.637,194.970 43.119,194.970 42.679 C 194.970 42.484,194.826 42.324,194.650 42.324 C 194.475 42.324,194.228 41.856,194.102 41.284 C 193.977 40.711,193.747 40.243,193.592 40.243 C 193.437 40.243,193.203 39.815,193.072 39.292 C 192.940 38.769,192.728 38.262,192.600 38.165 C 192.251 37.899,190.113 33.468,190.113 33.009 C 190.113 32.790,189.974 32.611,189.803 32.611 C 189.633 32.611,189.387 32.183,189.256 31.660 C 189.124 31.137,188.910 30.630,188.779 30.533 C 188.453 30.291,186.297 25.773,186.297 25.333 C 186.297 25.138,186.153 24.978,185.977 24.978 C 185.802 24.978,185.555 24.510,185.429 23.938 C 185.304 23.365,185.074 22.897,184.919 22.897 C 184.764 22.897,184.530 22.469,184.399 21.946 C 184.267 21.423,184.055 20.916,183.927 20.819 C 183.578 20.553,181.440 16.122,181.440 15.663 C 181.440 15.444,181.306 15.265,181.143 15.265 C 180.980 15.265,180.701 14.757,180.523 14.137 L 180.200 13.010 139.759 12.921 L 99.319 12.833 79.613 52.297 " stroke="none" fill="#81c967" fill-rule="evenodd"></path><path id="path2" d="M261.989 92.888 L 302.816 92.978 303.044 93.696 C 303.170 94.091,303.349 94.338,303.442 94.245 C 303.536 94.151,303.438 93.749,303.225 93.351 L 302.838 92.628 262.000 92.713 L 221.162 92.799 261.989 92.888 M58.109 94.016 C 57.979 94.426,57.951 94.840,58.046 94.935 C 58.141 95.031,58.326 94.773,58.456 94.363 C 58.586 93.952,58.615 93.538,58.520 93.443 C 58.424 93.348,58.240 93.605,58.109 94.016 M54.795 100.990 C 53.828 102.919,53.091 104.551,53.159 104.619 C 53.227 104.686,54.094 103.109,55.086 101.113 C 56.079 99.118,56.815 97.485,56.723 97.485 C 56.630 97.485,55.763 99.062,54.795 100.990 M49.436 111.709 C 47.622 115.334,46.215 118.300,46.310 118.300 C 46.406 118.300,47.969 115.334,49.783 111.709 C 51.598 108.083,53.004 105.117,52.909 105.117 C 52.814 105.117,51.251 108.083,49.436 111.709 M44.129 122.297 C 43.714 123.152,43.447 123.851,43.536 123.851 C 43.771 123.851,45.173 121.033,45.016 120.876 C 44.943 120.803,44.544 121.443,44.129 122.297 M41.740 126.886 C 41.621 127.220,41.458 127.650,41.378 127.840 C 41.298 128.031,41.478 127.884,41.778 127.514 C 42.324 126.841,42.488 126.279,42.140 126.279 C 42.039 126.279,41.858 126.552,41.740 126.886 M40.699 128.968 C 40.580 129.302,40.417 129.731,40.337 129.922 C 40.257 130.113,40.437 129.966,40.737 129.595 C 41.283 128.923,41.448 128.361,41.099 128.361 C 40.998 128.361,40.818 128.634,40.699 128.968 M38.867 132.501 C 38.428 133.322,38.407 133.668,38.813 133.417 C 39.119 133.228,39.597 131.830,39.355 131.830 C 39.284 131.830,39.065 132.132,38.867 132.501 M36.883 136.600 C 36.764 136.934,36.601 137.363,36.521 137.554 C 36.441 137.745,36.621 137.598,36.921 137.228 C 37.467 136.555,37.631 135.993,37.283 135.993 C 37.182 135.993,37.002 136.266,36.883 136.600 M21.856 166.522 C 20.899 168.430,20.193 169.991,20.289 169.991 C 20.384 169.991,21.245 168.430,22.203 166.522 C 23.160 164.614,23.866 163.053,23.770 163.053 C 23.675 163.053,22.814 164.614,21.856 166.522 M18.456 172.836 C 18.227 173.065,18.058 173.572,18.080 173.964 C 18.120 174.660,18.124 174.661,18.291 173.981 C 18.385 173.599,18.620 173.092,18.814 172.853 C 19.263 172.300,19.005 172.288,18.456 172.836 M342.937 173.213 C 343.500 174.104,343.504 174.214,342.984 174.601 C 342.673 174.832,333.077 193.677,321.660 216.479 C 310.243 239.280,294.885 269.879,287.531 284.475 C 280.177 299.072,271.624 316.049,268.524 322.203 C 263.081 333.007,262.398 334.120,262.043 332.763 C 261.953 332.417,261.117 330.660,260.187 328.860 C 259.256 327.059,254.866 318.326,250.431 309.454 C 245.996 300.581,242.253 293.242,242.113 293.145 C 241.973 293.048,241.752 292.540,241.620 292.017 C 241.489 291.495,241.243 291.067,241.073 291.067 C 240.902 291.067,240.763 290.891,240.763 290.677 C 240.763 290.462,240.120 289.018,239.333 287.468 C 234.575 278.088,232.784 274.433,232.784 274.099 C 232.784 273.891,232.645 273.721,232.475 273.721 C 232.305 273.721,232.058 273.293,231.927 272.770 C 231.796 272.247,231.584 271.740,231.456 271.643 C 231.328 271.545,229.350 267.719,227.060 263.140 L 222.897 254.814 140.850 254.812 C 95.724 254.811,77.408 254.850,100.148 254.900 L 141.493 254.990 161.380 294.866 L 181.266 334.743 262.522 334.761 C 327.450 334.775,343.744 334.692,343.610 334.345 C 343.519 334.106,345.296 330.242,347.561 325.758 C 349.825 321.275,358.741 303.556,367.374 286.383 C 376.007 269.211,383.250 255.004,383.469 254.814 C 383.988 254.362,383.979 253.517,383.449 253.079 C 383.219 252.888,382.318 251.249,381.446 249.436 C 380.574 247.624,379.716 245.881,379.538 245.563 C 378.325 243.392,375.022 236.645,375.022 236.339 C 375.022 236.133,374.905 235.912,374.761 235.849 C 374.618 235.785,374.238 235.186,373.916 234.519 C 373.594 233.851,372.361 231.353,371.175 228.968 C 366.839 220.246,366.349 219.226,366.349 218.925 C 366.349 218.756,366.232 218.566,366.088 218.502 C 365.945 218.439,365.565 217.840,365.243 217.173 C 364.921 216.505,363.688 214.007,362.502 211.622 C 358.166 202.900,357.676 201.880,357.676 201.579 C 357.676 201.410,357.559 201.220,357.415 201.156 C 357.272 201.093,356.892 200.494,356.570 199.827 C 356.248 199.159,355.015 196.661,353.829 194.276 C 349.493 185.554,349.003 184.534,349.003 184.233 C 349.003 184.064,348.886 183.874,348.742 183.810 C 348.599 183.747,348.218 183.148,347.896 182.480 C 344.813 176.093,343.317 173.206,342.863 172.767 C 342.467 172.383,342.486 172.501,342.937 173.213 M39.896 216.826 C 40.663 218.352,41.369 219.601,41.465 219.601 C 41.560 219.601,41.010 218.352,40.243 216.826 C 39.475 215.299,38.769 214.050,38.674 214.050 C 38.579 214.050,39.128 215.299,39.896 216.826 M41.631 220.072 C 41.631 220.449,44.047 225.152,44.241 225.152 C 44.337 225.152,43.848 224.020,43.155 222.637 C 41.856 220.041,41.631 219.662,41.631 220.072 M50.997 238.942 C 50.997 239.107,51.224 239.546,51.501 239.916 C 51.986 240.566,51.997 240.562,51.806 239.804 C 51.608 239.021,50.997 238.369,50.997 238.942 " stroke="none" fill="#78c5d0" fill-rule="evenodd"></path><path id="path3" d="M43.592 123.968 C 20.453 169.991,19.223 172.416,18.790 172.849 C 18.319 173.320,18.253 174.392,18.685 174.559 C 18.942 174.659,31.634 199.711,52.862 242.024 C 56.034 248.346,58.630 253.771,58.630 254.080 C 58.630 254.592,62.101 254.640,99.482 254.640 L 140.334 254.640 160.213 214.868 C 171.146 192.993,179.960 174.964,179.799 174.803 C 179.637 174.642,161.478 174.504,139.444 174.497 L 99.382 174.484 79.266 134.223 C 68.202 112.080,59.070 93.910,58.973 93.846 C 58.875 93.782,51.954 107.337,43.592 123.968 M181.978 175.282 C 182.071 175.520,186.112 183.599,190.959 193.235 C 195.806 202.871,204.662 220.542,210.640 232.504 C 216.618 244.466,221.587 254.254,221.683 254.256 C 221.778 254.257,226.835 244.314,232.919 232.160 C 239.004 220.005,247.942 202.196,252.781 192.583 C 257.619 182.970,261.578 175.047,261.578 174.976 C 261.578 174.906,243.630 174.848,221.693 174.848 C 189.926 174.848,181.843 174.936,181.978 175.282 " stroke="none" fill="#048ceb" fill-rule="evenodd"></path><path id="path4" d="M0.000 173.461 L 0.000 346.921 200.000 346.921 L 400.000 346.921 400.000 173.461 L 400.000 0.000 200.000 0.000 L 0.000 0.000 0.000 173.461 M200.417 52.364 L 220.468 92.586 261.780 92.607 L 303.091 92.628 323.119 132.697 C 334.134 154.735,343.254 172.769,343.386 172.772 C 343.518 172.775,352.602 190.796,363.573 212.819 C 374.545 234.841,383.716 252.870,383.955 252.883 C 384.463 252.909,384.557 254.987,384.050 254.987 C 383.864 254.987,381.775 258.851,379.408 263.573 C 377.041 268.296,368.893 284.493,361.302 299.566 C 353.711 314.640,346.738 328.493,345.807 330.352 C 344.875 332.210,344.160 334.005,344.216 334.341 C 344.314 334.923,340.403 334.956,262.359 335.040 C 184.461 335.123,180.399 335.097,180.404 334.519 C 180.406 334.185,171.547 316.158,160.716 294.459 L 141.023 255.006 99.653 254.996 C 65.030 254.989,58.283 254.910,58.283 254.516 C 58.283 254.256,54.280 246.099,49.388 236.389 C 44.496 226.679,39.884 217.485,39.139 215.958 C 38.394 214.432,37.518 212.637,37.192 211.969 C 36.867 211.301,36.522 210.676,36.427 210.581 C 36.331 210.486,35.707 209.237,35.039 207.806 C 34.371 206.375,33.729 205.126,33.611 205.030 C 33.494 204.935,33.278 204.467,33.131 203.990 C 32.984 203.513,32.768 203.044,32.651 202.949 C 32.309 202.671,29.141 196.132,29.141 195.705 C 29.141 195.491,29.002 195.317,28.832 195.317 C 28.662 195.317,28.415 194.889,28.284 194.366 C 28.153 193.843,27.941 193.336,27.813 193.239 C 27.685 193.141,25.554 189.023,23.077 184.087 C 20.600 179.150,18.375 175.036,18.133 174.943 C 17.638 174.753,17.520 172.767,18.004 172.767 C 18.337 172.767,19.854 169.874,27.554 154.553 C 30.239 149.211,32.553 144.788,32.697 144.724 C 32.840 144.660,32.953 144.426,32.948 144.204 C 32.936 143.688,36.166 137.246,36.513 137.092 C 36.657 137.028,36.773 136.794,36.773 136.571 C 36.771 136.045,41.030 127.529,41.370 127.378 C 41.513 127.314,41.631 127.080,41.630 126.857 C 41.630 126.462,44.736 120.032,45.093 119.688 C 45.192 119.592,48.099 113.816,51.553 106.852 C 65.731 78.265,97.998 13.649,98.458 12.923 L 98.952 12.142 139.659 12.142 L 180.366 12.142 200.417 52.364 " stroke="none" fill="#fbfbfb" fill-rule="evenodd"></path><path id="path5" d="M78.949 52.444 C 67.964 74.418,58.977 92.459,58.977 92.533 C 58.977 93.374,62.388 86.716,79.463 52.556 L 99.318 12.833 139.759 12.921 L 180.200 13.010 180.523 14.137 C 180.701 14.757,180.980 15.265,181.143 15.265 C 181.306 15.265,181.440 15.444,181.440 15.663 C 181.440 16.122,183.578 20.553,183.927 20.819 C 184.055 20.916,184.267 21.423,184.399 21.946 C 184.530 22.469,184.764 22.897,184.919 22.897 C 185.074 22.897,185.304 23.365,185.429 23.938 C 185.555 24.510,185.802 24.978,185.977 24.978 C 186.153 24.978,186.297 25.138,186.297 25.333 C 186.297 25.773,188.453 30.291,188.779 30.533 C 188.910 30.630,189.124 31.137,189.256 31.660 C 189.387 32.183,189.633 32.611,189.803 32.611 C 189.974 32.611,190.113 32.790,190.113 33.009 C 190.113 33.468,192.251 37.899,192.600 38.165 C 192.728 38.262,192.940 38.769,193.072 39.292 C 193.203 39.815,193.437 40.243,193.592 40.243 C 193.747 40.243,193.977 40.711,194.102 41.284 C 194.228 41.856,194.475 42.324,194.650 42.324 C 194.826 42.324,194.970 42.484,194.970 42.679 C 194.970 43.119,197.126 47.637,197.452 47.879 C 197.583 47.976,197.797 48.483,197.929 49.006 C 198.060 49.529,198.306 49.957,198.476 49.957 C 198.647 49.957,198.786 50.136,198.786 50.355 C 198.786 50.814,200.924 55.245,201.273 55.511 C 201.401 55.608,201.613 56.116,201.745 56.638 C 201.876 57.161,202.110 57.589,202.265 57.589 C 202.420 57.589,202.650 58.057,202.775 58.630 C 202.901 59.202,203.148 59.670,203.323 59.670 C 203.499 59.670,203.643 59.830,203.643 60.025 C 203.643 60.465,205.799 64.983,206.125 65.225 C 206.256 65.322,206.470 65.829,206.602 66.352 C 206.733 66.875,206.979 67.303,207.149 67.303 C 207.320 67.303,207.459 67.488,207.459 67.716 C 207.459 68.185,209.587 72.587,209.945 72.857 C 210.074 72.954,210.287 73.462,210.418 73.984 C 210.549 74.507,210.783 74.935,210.938 74.935 C 211.093 74.935,211.323 75.403,211.448 75.976 C 211.574 76.548,211.821 77.016,211.996 77.016 C 212.172 77.016,212.316 77.176,212.316 77.371 C 212.316 77.811,214.472 82.329,214.798 82.571 C 214.929 82.668,215.143 83.175,215.275 83.698 C 215.406 84.221,215.652 84.649,215.823 84.649 C 215.993 84.649,216.132 84.828,216.132 85.047 C 216.132 85.726,219.404 92.233,219.837 92.415 C 220.363 92.637,221.451 94.852,199.289 50.564 L 180.236 12.489 139.579 12.489 L 98.922 12.489 78.949 52.444 M283.001 335.039 C 294.115 335.090,312.303 335.090,323.417 335.039 C 334.532 334.988,325.438 334.947,303.209 334.947 C 280.980 334.947,271.886 334.988,283.001 335.039 " stroke="none" fill="#acdc9f" fill-rule="evenodd"></path><path id="path6" d="M98.753 12.402 C 98.664 12.546,116.968 12.622,139.427 12.573 L 180.262 12.484 181.435 14.909 C 182.081 16.242,182.668 17.274,182.740 17.202 C 182.813 17.130,182.314 15.961,181.631 14.606 L 180.390 12.142 139.652 12.142 C 117.246 12.142,98.841 12.259,98.753 12.402 M97.844 13.854 C 97.404 14.675,97.384 15.021,97.790 14.770 C 98.096 14.581,98.573 13.183,98.332 13.183 C 98.261 13.183,98.041 13.485,97.844 13.854 M96.803 15.936 C 96.364 16.757,96.343 17.102,96.749 16.852 C 97.055 16.662,97.533 15.265,97.291 15.265 C 97.220 15.265,97.001 15.566,96.803 15.936 M184.632 21.328 C 185.047 22.182,185.446 22.822,185.519 22.749 C 185.676 22.592,184.274 19.775,184.039 19.775 C 183.950 19.775,184.217 20.474,184.632 21.328 M94.028 21.486 C 93.588 22.308,93.568 22.653,93.974 22.402 C 94.280 22.213,94.757 20.815,94.516 20.815 C 94.445 20.815,94.225 21.117,94.028 21.486 M92.987 23.568 C 92.548 24.389,92.527 24.735,92.933 24.484 C 93.239 24.295,93.716 22.897,93.475 22.897 C 93.404 22.897,93.185 23.199,92.987 23.568 M186.541 25.142 C 187.053 26.186,187.531 26.982,187.602 26.911 C 187.758 26.755,186.008 23.244,185.774 23.244 C 185.684 23.244,186.029 24.098,186.541 25.142 M89.171 31.200 C 88.731 32.021,88.711 32.367,89.117 32.116 C 89.423 31.927,89.900 30.529,89.659 30.529 C 89.588 30.529,89.368 30.831,89.171 31.200 M190.530 33.123 C 190.945 33.978,191.344 34.617,191.417 34.545 C 191.574 34.388,190.172 31.570,189.937 31.570 C 189.848 31.570,190.114 32.269,190.530 33.123 M88.130 33.282 C 87.691 34.103,87.670 34.448,88.076 34.198 C 88.382 34.008,88.860 32.611,88.618 32.611 C 88.547 32.611,88.328 32.913,88.130 33.282 M193.305 38.674 C 193.720 39.529,194.119 40.168,194.192 40.095 C 194.349 39.938,192.947 37.121,192.712 37.121 C 192.623 37.121,192.890 37.820,193.305 38.674 M85.355 38.832 C 84.915 39.654,84.895 39.999,85.301 39.748 C 85.607 39.559,86.084 38.161,85.843 38.161 C 85.772 38.161,85.552 38.463,85.355 38.832 M84.314 40.914 C 83.875 41.735,83.854 42.081,84.260 41.830 C 84.566 41.641,85.043 40.243,84.802 40.243 C 84.731 40.243,84.512 40.545,84.314 40.914 M195.214 42.488 C 195.726 43.532,196.204 44.328,196.275 44.257 C 196.431 44.101,194.681 40.590,194.447 40.590 C 194.357 40.590,194.702 41.444,195.214 42.488 M83.273 42.995 C 82.834 43.817,82.813 44.162,83.219 43.911 C 83.525 43.722,84.003 42.324,83.761 42.324 C 83.690 42.324,83.471 42.626,83.273 42.995 M80.498 48.546 C 80.058 49.367,80.038 49.713,80.444 49.462 C 80.750 49.273,81.227 47.875,80.986 47.875 C 80.915 47.875,80.695 48.177,80.498 48.546 M199.203 50.469 C 199.618 51.324,200.017 51.963,200.090 51.891 C 200.247 51.734,198.845 48.916,198.610 48.916 C 198.521 48.916,198.788 49.615,199.203 50.469 M79.457 50.628 C 79.018 51.449,78.997 51.794,79.403 51.544 C 79.709 51.354,80.187 49.957,79.945 49.957 C 79.874 49.957,79.655 50.259,79.457 50.628 M201.978 56.020 C 202.393 56.875,202.792 57.514,202.865 57.441 C 203.022 57.285,201.620 54.467,201.385 54.467 C 201.296 54.467,201.563 55.166,201.978 56.020 M76.682 56.178 C 76.242 57.000,76.222 57.345,76.628 57.094 C 76.934 56.905,77.411 55.507,77.170 55.507 C 77.099 55.507,76.879 55.809,76.682 56.178 M75.641 58.260 C 75.201 59.081,75.181 59.427,75.587 59.176 C 75.893 58.987,76.370 57.589,76.129 57.589 C 76.058 57.589,75.839 57.891,75.641 58.260 M203.887 59.834 C 204.399 60.878,204.877 61.674,204.948 61.603 C 205.104 61.447,203.354 57.936,203.120 57.936 C 203.030 57.936,203.375 58.790,203.887 59.834 M74.600 60.341 C 74.161 61.163,74.140 61.508,74.546 61.257 C 74.852 61.068,75.330 59.670,75.088 59.670 C 75.017 59.670,74.798 59.972,74.600 60.341 M71.825 65.892 C 71.385 66.713,71.365 67.059,71.771 66.808 C 72.077 66.619,72.554 65.221,72.313 65.221 C 72.242 65.221,72.022 65.523,71.825 65.892 M207.876 67.815 C 208.291 68.670,208.690 69.309,208.763 69.237 C 208.920 69.080,207.518 66.262,207.283 66.262 C 207.194 66.262,207.461 66.961,207.876 67.815 M70.784 67.974 C 70.345 68.795,70.324 69.141,70.730 68.890 C 71.036 68.701,71.514 67.303,71.272 67.303 C 71.201 67.303,70.982 67.605,70.784 67.974 M210.651 73.366 C 211.066 74.221,211.465 74.860,211.538 74.787 C 211.695 74.631,210.293 71.813,210.058 71.813 C 209.969 71.813,210.236 72.512,210.651 73.366 M68.009 73.524 C 67.569 74.346,67.549 74.691,67.955 74.440 C 68.261 74.251,68.738 72.853,68.497 72.853 C 68.426 72.853,68.206 73.155,68.009 73.524 M66.968 75.606 C 66.528 76.427,66.508 76.773,66.914 76.522 C 67.220 76.333,67.697 74.935,67.456 74.935 C 67.385 74.935,67.165 75.237,66.968 75.606 M212.560 77.180 C 213.073 78.224,213.550 79.020,213.621 78.949 C 213.777 78.793,212.027 75.282,211.793 75.282 C 211.703 75.282,212.048 76.136,212.560 77.180 M65.927 77.688 C 65.488 78.509,65.467 78.854,65.873 78.604 C 66.179 78.414,66.657 77.016,66.415 77.016 C 66.344 77.016,66.125 77.318,65.927 77.688 M63.152 83.238 C 62.712 84.059,62.692 84.405,63.098 84.154 C 63.404 83.965,63.881 82.567,63.640 82.567 C 63.569 82.567,63.349 82.869,63.152 83.238 M216.549 85.162 C 216.964 86.016,217.363 86.656,217.436 86.583 C 217.593 86.426,216.191 83.608,215.956 83.608 C 215.867 83.608,216.134 84.307,216.549 85.162 M62.111 85.320 C 61.672 86.141,61.651 86.487,62.057 86.236 C 62.363 86.047,62.840 84.649,62.599 84.649 C 62.528 84.649,62.309 84.951,62.111 85.320 M219.324 90.712 C 219.739 91.567,220.138 92.206,220.211 92.134 C 220.368 91.977,218.966 89.159,218.731 89.159 C 218.642 89.159,218.909 89.858,219.324 90.712 M59.336 90.871 C 58.896 91.692,58.876 92.037,59.282 91.787 C 59.588 91.597,60.065 90.199,59.824 90.199 C 59.753 90.199,59.533 90.501,59.336 90.871 M344.031 174.420 C 344.140 174.852,344.367 175.291,344.535 175.394 C 345.009 175.688,344.894 175.053,344.336 174.307 C 343.851 173.658,343.840 173.662,344.031 174.420 M345.072 176.502 C 345.181 176.934,345.407 177.372,345.575 177.476 C 346.050 177.769,345.934 177.135,345.377 176.389 C 344.892 175.739,344.881 175.743,345.072 176.502 M347.170 180.659 C 347.477 181.478,348.653 183.411,348.654 183.098 C 348.656 182.777,347.239 180.052,347.070 180.052 C 347.000 180.052,347.045 180.325,347.170 180.659 M348.888 184.134 C 348.997 184.566,349.224 185.005,349.391 185.108 C 349.866 185.402,349.751 184.767,349.193 184.021 C 348.708 183.372,348.697 183.375,348.888 184.134 M349.929 186.215 C 350.038 186.648,350.264 187.086,350.432 187.190 C 350.907 187.483,350.791 186.849,350.234 186.103 C 349.749 185.453,349.738 185.457,349.929 186.215 M350.986 188.291 C 351.293 189.111,352.469 191.043,352.471 190.731 C 352.472 190.410,351.055 187.684,350.887 187.684 C 350.816 187.684,350.861 187.958,350.986 188.291 M352.704 191.766 C 352.813 192.198,353.040 192.637,353.208 192.741 C 353.682 193.034,353.567 192.399,353.009 191.653 C 352.524 191.004,352.513 191.008,352.704 191.766 M353.745 193.848 C 353.854 194.280,354.081 194.718,354.248 194.822 C 354.723 195.115,354.607 194.481,354.050 193.735 C 353.565 193.085,353.554 193.089,353.745 193.848 M355.843 198.005 C 356.150 198.824,357.326 200.757,357.327 200.444 C 357.329 200.123,355.912 197.398,355.743 197.398 C 355.673 197.398,355.718 197.671,355.843 198.005 M357.561 201.480 C 357.670 201.912,357.897 202.351,358.064 202.454 C 358.539 202.748,358.424 202.113,357.866 201.367 C 357.381 200.718,357.370 200.722,357.561 201.480 M358.602 203.561 C 358.711 203.994,358.937 204.432,359.105 204.536 C 359.580 204.829,359.464 204.195,358.907 203.449 C 358.422 202.799,358.411 202.803,358.602 203.561 M359.659 205.637 C 359.966 206.457,361.142 208.389,361.144 208.077 C 361.145 207.756,359.728 205.030,359.560 205.030 C 359.489 205.030,359.534 205.304,359.659 205.637 M361.377 209.112 C 361.486 209.544,361.713 209.983,361.881 210.087 C 362.355 210.380,362.240 209.745,361.682 209.000 C 361.197 208.350,361.186 208.354,361.377 209.112 M362.418 211.194 C 362.527 211.626,362.754 212.064,362.921 212.168 C 363.396 212.462,363.280 211.827,362.723 211.081 C 362.238 210.431,362.227 210.435,362.418 211.194 M366.234 218.826 C 366.343 219.258,366.570 219.697,366.737 219.800 C 367.212 220.094,367.097 219.459,366.539 218.713 C 366.054 218.064,366.043 218.068,366.234 218.826 M367.275 220.907 C 367.384 221.340,367.610 221.778,367.778 221.882 C 368.253 222.175,368.137 221.541,367.580 220.795 C 367.095 220.145,367.084 220.149,367.275 220.907 M368.332 222.984 C 368.639 223.803,369.815 225.735,369.817 225.423 C 369.818 225.102,368.401 222.376,368.233 222.376 C 368.162 222.376,368.207 222.650,368.332 222.984 M370.050 226.458 C 370.159 226.890,370.386 227.329,370.554 227.433 C 371.028 227.726,370.913 227.091,370.356 226.346 C 369.870 225.696,369.859 225.700,370.050 226.458 M371.091 228.540 C 371.200 228.972,371.427 229.410,371.594 229.514 C 372.069 229.808,371.953 229.173,371.396 228.427 C 370.911 227.777,370.900 227.781,371.091 228.540 M374.907 236.172 C 375.016 236.604,375.243 237.043,375.410 237.146 C 375.885 237.440,375.770 236.805,375.212 236.059 C 374.727 235.410,374.716 235.414,374.907 236.172 M375.948 238.253 C 376.057 238.686,376.283 239.124,376.451 239.228 C 376.926 239.521,376.810 238.887,376.253 238.141 C 375.768 237.491,375.757 237.495,375.948 238.253 M377.005 240.330 C 377.312 241.149,378.488 243.081,378.490 242.769 C 378.491 242.448,377.074 239.722,376.906 239.722 C 376.835 239.722,376.880 239.996,377.005 240.330 M378.723 243.804 C 378.832 244.236,379.059 244.675,379.227 244.779 C 379.701 245.072,379.586 244.437,379.029 243.692 C 378.543 243.042,378.532 243.046,378.723 243.804 M379.764 245.886 C 379.873 246.318,380.100 246.757,380.267 246.860 C 380.742 247.154,380.627 246.519,380.069 245.773 C 379.584 245.123,379.573 245.127,379.764 245.886 M383.686 253.134 C 384.115 253.347,384.161 254.535,383.747 254.698 C 383.330 254.861,375.550 270.252,375.884 270.252 C 375.980 270.252,377.778 266.817,379.879 262.619 C 381.979 258.422,383.864 254.987,384.066 254.987 C 384.587 254.987,384.310 253.151,383.773 253.045 C 383.529 252.997,383.490 253.037,383.686 253.134 M374.777 272.091 C 373.277 275.027,372.926 275.802,373.100 275.802 C 373.334 275.802,375.796 270.910,375.641 270.755 C 375.575 270.689,375.186 271.291,374.777 272.091 M372.355 276.756 C 372.237 277.090,372.074 277.520,371.994 277.710 C 371.914 277.901,372.094 277.754,372.394 277.384 C 372.939 276.711,373.104 276.149,372.756 276.149 C 372.654 276.149,372.474 276.422,372.355 276.756 M371.315 278.838 C 371.196 279.172,371.033 279.601,370.953 279.792 C 370.873 279.983,371.053 279.836,371.353 279.465 C 371.899 278.793,372.063 278.231,371.715 278.231 C 371.614 278.231,371.433 278.504,371.315 278.838 M360.609 300.139 C 355.136 311.082,350.544 320.191,350.405 320.382 C 349.968 320.978,349.619 322.153,349.992 321.769 C 350.491 321.256,370.857 280.542,370.696 280.381 C 370.621 280.306,366.081 289.197,360.609 300.139 M348.214 324.797 C 347.528 326.178,347.025 327.366,347.095 327.437 C 347.166 327.507,347.790 326.440,348.482 325.065 C 349.175 323.690,349.678 322.502,349.601 322.425 C 349.524 322.348,348.900 323.416,348.214 324.797 M345.421 330.243 C 344.040 332.961,343.333 335.126,343.827 335.126 C 344.002 335.126,344.146 334.794,344.146 334.389 C 344.146 333.984,344.773 332.399,345.539 330.868 C 346.306 329.336,346.871 328.022,346.795 327.946 C 346.720 327.870,346.101 328.904,345.421 330.243 " stroke="none" fill="#e0f0e4" fill-rule="evenodd"></path><path id="path7" d="M43.348 123.191 C 42.949 123.972,42.682 124.671,42.755 124.744 C 42.828 124.817,43.227 124.177,43.642 123.323 C 44.588 121.377,44.332 121.262,43.348 123.191 M17.818 173.287 C 17.552 173.982,17.911 174.850,18.463 174.843 C 18.796 174.839,18.786 174.761,18.424 174.531 C 18.141 174.352,18.019 173.923,18.131 173.496 C 18.350 172.661,18.118 172.506,17.818 173.287 M141.203 255.020 C 141.190 255.466,142.321 257.448,142.491 257.278 C 142.590 257.179,142.342 256.584,141.940 255.956 C 141.538 255.327,141.206 254.907,141.203 255.020 M142.868 258.369 C 143.813 260.561,145.088 263.007,145.218 262.877 C 145.389 262.706,143.017 257.762,142.764 257.762 C 142.678 257.762,142.725 258.036,142.868 258.369 M145.593 263.926 C 145.701 264.358,145.928 264.796,146.096 264.900 C 146.570 265.194,146.455 264.559,145.898 263.813 C 145.412 263.163,145.401 263.167,145.593 263.926 M146.633 266.007 C 146.742 266.439,146.969 266.878,147.136 266.982 C 147.611 267.275,147.496 266.640,146.938 265.895 C 146.453 265.245,146.442 265.249,146.633 266.007 M147.529 267.736 C 147.600 267.879,148.406 269.529,149.320 271.402 C 150.233 273.275,151.047 274.741,151.127 274.661 C 151.292 274.495,147.810 267.476,147.562 267.476 C 147.473 267.476,147.459 267.593,147.529 267.736 M151.541 275.716 C 152.486 277.907,153.761 280.353,153.891 280.223 C 154.062 280.052,151.690 275.108,151.437 275.108 C 151.351 275.108,151.398 275.382,151.541 275.716 M154.266 281.272 C 154.374 281.704,154.601 282.142,154.769 282.246 C 155.243 282.540,155.128 281.905,154.571 281.159 C 154.085 280.509,154.074 280.513,154.266 281.272 M155.306 283.353 C 155.415 283.785,155.642 284.224,155.809 284.328 C 156.284 284.621,156.169 283.986,155.611 283.241 C 155.126 282.591,155.115 282.595,155.306 283.353 M156.202 285.082 C 156.273 285.225,157.079 286.875,157.993 288.748 C 158.906 290.621,159.720 292.087,159.800 292.007 C 159.965 291.841,156.483 284.822,156.235 284.822 C 156.146 284.822,156.132 284.939,156.202 285.082 M160.214 293.062 C 161.159 295.254,162.434 297.699,162.564 297.569 C 162.735 297.398,160.363 292.454,160.111 292.454 C 160.024 292.454,160.071 292.728,160.214 293.062 M162.939 298.618 C 163.048 299.050,163.274 299.489,163.442 299.592 C 163.916 299.886,163.801 299.251,163.244 298.505 C 162.758 297.855,162.747 297.859,162.939 298.618 M163.979 300.699 C 164.088 301.132,164.315 301.570,164.482 301.674 C 164.957 301.967,164.842 301.332,164.284 300.587 C 163.799 299.937,163.788 299.941,163.979 300.699 M164.875 302.428 C 164.946 302.572,165.752 304.221,166.666 306.094 C 167.579 307.967,168.393 309.433,168.473 309.353 C 168.639 309.187,165.156 302.168,164.908 302.168 C 164.819 302.168,164.805 302.285,164.875 302.428 M168.836 310.413 C 168.945 310.845,169.172 311.284,169.339 311.388 C 169.814 311.681,169.698 311.046,169.141 310.300 C 168.656 309.651,168.645 309.655,168.836 310.413 M169.739 312.142 C 169.814 312.285,170.148 313.001,170.483 313.732 C 170.818 314.463,171.163 314.989,171.251 314.901 C 171.425 314.727,170.022 311.882,169.762 311.882 C 169.675 311.882,169.664 311.999,169.739 312.142 M171.612 315.964 C 171.721 316.396,171.947 316.835,172.115 316.938 C 172.590 317.232,172.474 316.597,171.917 315.851 C 171.431 315.202,171.420 315.205,171.612 315.964 M172.652 318.045 C 172.761 318.478,172.988 318.916,173.155 319.020 C 173.630 319.313,173.515 318.679,172.957 317.933 C 172.472 317.283,172.461 317.287,172.652 318.045 M173.548 319.775 C 173.619 319.918,174.425 321.567,175.339 323.440 C 176.252 325.313,177.066 326.779,177.146 326.699 C 177.312 326.534,173.829 319.514,173.581 319.514 C 173.492 319.514,173.478 319.631,173.548 319.775 M177.509 327.759 C 177.618 328.191,177.845 328.630,178.012 328.734 C 178.487 329.027,178.372 328.392,177.814 327.647 C 177.329 326.997,177.318 327.001,177.509 327.759 M178.558 329.817 C 178.687 330.161,179.159 331.141,179.609 331.995 C 180.059 332.849,180.475 333.864,180.534 334.250 C 180.641 334.951,180.742 334.952,221.891 334.954 L 263.140 334.957 222.203 334.856 L 181.266 334.755 180.052 332.143 C 178.955 329.782,177.979 328.262,178.558 329.817 " stroke="none" fill="#ccecfc" fill-rule="evenodd"></path><path id="path8" d="" stroke="none" fill="#dcf4fc" fill-rule="evenodd"></path></g></svg>